<svg height="512" viewBox="0 0 384 384" width="512" xmlns="http://www.w3.org/2000/svg"><path d="m383.800781 182.121094c0-24.097656-65.566406-44.203125-152.703125-48.839844l-.003906-38.394531h108.796875v-79.90625h-297.5v79.90625h108.789063v38.582031c-85.546876 4.957031-149.539063 24.851562-149.539063 48.652344 0 23.804687 63.992187 43.703125 149.539063 48.648437v137.875h79.914062v-137.6875c87.140625-4.628906 152.707031-24.738281 152.707031-48.835937zm-191.082031 23.738281c-93.523438 0-169.34375-14.476563-169.34375-32.34375 0-15.125 54.367188-27.828125 127.804688-31.359375v9.105469h.007812v37.3125c13.242188.746093 27.15625 1.132812 41.53125 1.132812 13.238281 0 26.09375-.335937 38.382812-.953125v-46.738281c75.03125 3.316406 130.96875 16.152344 130.96875 31.5 0 17.867187-75.824218 32.34375-169.351562 32.34375zm0 0"/></svg>